<?xml version="1.0" standalone="no"?>
<!DOCTYPE svg PUBLIC "-//W3C//DTD SVG 20010904//EN"
 "http://www.w3.org/TR/2001/REC-SVG-20010904/DTD/svg10.dtd">
<svg version="1.0" xmlns="http://www.w3.org/2000/svg"
 width="200.000000pt" height="200.000000pt" viewBox="0 0 200.000000 200.000000"
 preserveAspectRatio="xMidYMid meet">
<metadata>
Created by potrace 1.14, written by Peter Selinger 2001-2017
</metadata>
<g transform="translate(0.000000,200.000000) scale(0.100000,-0.100000)"
fill="#000000" stroke="none">
<path d="M1108 1945 c5 -58 -26 -114 -105 -192 -35 -35 -67 -63 -71 -63 -4 0
-22 -13 -40 -28 -17 -15 -44 -36 -59 -47 -56 -42 -136 -129 -150 -164 -47
-108 21 -253 173 -371 68 -53 94 -70 94 -63 0 5 -20 40 -45 77 -25 38 -45 71
-45 73 0 1 -10 25 -23 51 -30 63 -28 124 5 178 14 21 78 92 142 157 137 138
170 194 170 293 0 55 -21 125 -42 138 -4 2 -5 -15 -4 -39z"/>
<path d="M1389 1666 c-2 -2 -20 -6 -39 -9 -52 -7 -125 -25 -157 -38 -77 -32
-94 -42 -141 -86 -59 -56 -90 -137 -76 -201 4 -21 8 -43 10 -50 2 -11 26 -52
77 -132 30 -48 27 -107 -9 -150 -15 -17 -25 -33 -23 -35 9 -8 86 33 121 64 32
28 43 51 54 111 5 24 -15 88 -32 105 -8 8 -12 15 -7 15 4 0 3 4 -3 8 -26 18
-50 93 -45 145 1 18 79 101 120 127 13 8 39 27 59 43 19 15 38 27 41 27 11 1
75 60 65 60 -6 0 -13 -2 -15 -4z"/>
<path d="M627 1034 c-1 -1 -35 -5 -76 -8 -41 -4 -82 -11 -90 -16 -9 -4 -20 -8
-24 -8 -27 0 -67 -28 -76 -53 -8 -25 -7 -32 11 -49 27 -25 94 -47 183 -59 65
-9 398 -7 455 2 14 3 43 7 65 11 89 14 165 34 181 47 6 5 13 7 15 5 3 -3 22
11 44 30 l40 35 -35 -5 c-19 -3 -53 -7 -75 -10 -95 -14 -151 -18 -345 -22
-215 -5 -287 -1 -316 20 -15 12 -11 16 37 38 30 14 65 30 79 35 22 9 19 11
-23 9 -27 0 -49 -2 -50 -2z"/>
<path d="M1460 1026 c-19 -7 -43 -17 -53 -22 -15 -9 -11 -11 23 -12 103 -4
148 -83 103 -180 -17 -37 -134 -162 -152 -162 -5 0 -11 -6 -14 -14 -5 -11 0
-13 24 -6 16 5 33 9 37 9 24 3 102 34 102 42 0 5 6 9 13 9 20 0 84 71 102 113
19 46 22 116 6 154 -25 60 -120 94 -191 69z"/>
<path d="M583 808 c-18 -6 -33 -15 -33 -19 0 -5 -7 -9 -15 -9 -14 0 -33 -25
-33 -45 -1 -32 66 -66 178 -89 64 -14 366 -16 386 -4 5 3 25 9 45 12 50 8 146
33 164 44 13 7 8 14 -27 38 -58 39 -80 44 -125 29 -80 -27 -294 -39 -384 -21
-66 14 -113 41 -105 62 6 16 -5 16 -51 2z"/>
<path d="M634 600 c-55 -24 -74 -70 -41 -100 37 -35 149 -63 256 -64 102 -1
185 7 239 23 17 5 32 8 32 6 0 -2 30 8 66 21 37 13 69 24 70 24 11 0 2 20 -8
20 -7 0 -26 14 -42 30 -16 17 -34 30 -40 31 -6 0 -20 2 -31 4 -10 2 -25 -1
-32 -7 -7 -6 -13 -8 -13 -4 0 3 -11 1 -24 -4 -61 -23 -237 -34 -295 -18 -40
11 -73 36 -65 49 9 15 -28 9 -72 -11z"/>
<path d="M384 509 c-143 -18 -204 -86 -148 -162 17 -23 114 -86 114 -73 0 3
16 -2 35 -10 19 -8 35 -12 35 -9 0 3 8 2 18 -4 9 -5 40 -12 67 -15 28 -4 64
-9 80 -11 87 -12 154 -15 295 -15 85 0 173 2 195 5 22 2 67 7 100 10 201 20
390 92 414 158 12 31 3 68 -21 89 -29 25 -48 23 -48 -5 0 -55 -72 -102 -200
-131 -112 -26 -184 -31 -415 -31 -225 0 -321 9 -390 35 -14 5 -25 7 -25 5 0
-11 -80 36 -89 52 -22 39 35 73 122 73 33 0 37 2 24 14 -20 20 -102 33 -163
25z"/>
<path d="M1700 302 c-13 -15 -161 -96 -179 -98 -3 0 -33 -8 -66 -18 -66 -20
-73 -22 -160 -36 -207 -35 -510 -31 -719 11 -27 5 -51 8 -53 6 -12 -13 215
-65 377 -86 83 -12 344 -9 405 3 17 3 44 8 60 11 73 12 143 30 184 47 14 6 28
12 31 13 43 11 115 78 145 135 18 35 1 43 -25 12z"/>
</g>
</svg>
